<svg width="44" height="44" viewBox="0 0 44 44" fill="none" xmlns="http://www.w3.org/2000/svg">
<path d="M12.8334 15.889C14.4541 15.889 16.0085 15.2452 17.1546 14.0993C18.3006 12.9533 18.9445 11.399 18.9445 9.77838C18.9445 8.15773 18.3006 6.60345 17.1546 5.45748C16.0085 4.31151 14.4541 3.66771 12.8334 3.66771C11.2126 3.66771 9.6582 4.31151 8.51215 5.45748C7.36609 6.60345 6.72224 8.15773 6.72224 9.77838C6.72224 11.399 7.36609 12.9533 8.51215 14.0993C9.6582 15.2452 11.2126 15.889 12.8334 15.889V15.889ZM12.8334 12.8337C12.023 12.8337 11.2458 12.5118 10.6727 11.9388C10.0997 11.3658 9.7778 10.5887 9.7778 9.77838C9.7778 8.96805 10.0997 8.19091 10.6727 7.61793C11.2458 7.04494 12.023 6.72304 12.8334 6.72304C13.6437 6.72304 14.4209 7.04494 14.994 7.61793C15.567 8.19091 15.8889 8.96805 15.8889 9.77838C15.8889 10.5887 15.567 11.3658 14.994 11.9388C14.4209 12.5118 13.6437 12.8337 12.8334 12.8337V12.8337ZM3.66669 21.4905C3.66669 19.5229 5.26372 17.9259 7.2315 17.9259H18.4352C20.403 17.9259 22 19.5229 22 21.4905V31.1657C22 33.5967 21.0342 35.9281 19.3152 37.6471C17.5961 39.366 15.2645 40.3317 12.8334 40.3317C10.4022 40.3317 8.07062 39.366 6.35154 37.6471C4.63246 35.9281 3.66669 33.5967 3.66669 31.1657V21.4905ZM7.2315 20.9813C7.09644 20.9813 6.96691 21.0349 6.8714 21.1304C6.7759 21.2259 6.72224 21.3554 6.72224 21.4905V31.1657C6.72224 32.7864 7.36609 34.3407 8.51215 35.4866C9.6582 36.6326 11.2126 37.2764 12.8334 37.2764C14.4541 37.2764 16.0085 36.6326 17.1546 35.4866C18.3006 34.3407 18.9445 32.7864 18.9445 31.1657V21.4905C18.9445 21.3554 18.8908 21.2259 18.7953 21.1304C18.6998 21.0349 18.5703 20.9813 18.4352 20.9813H7.2315ZM18.9995 15.1028C19.9294 15.626 20.98 15.8967 22.047 15.8878C23.114 15.879 24.16 15.5909 25.0811 15.0524C26.0022 14.5138 26.7662 13.7435 27.2971 12.8181C27.8281 11.8926 28.1074 10.8443 28.1074 9.77736C28.1074 8.71044 27.8281 7.66211 27.2971 6.73666C26.7662 5.81121 26.0022 5.04089 25.0811 4.50233C24.16 3.96377 23.114 3.67574 22.047 3.6669C20.98 3.65805 19.9294 3.9287 18.9995 4.45191C19.6656 5.22185 20.1891 6.11808 20.5313 7.09987C20.9966 6.84495 21.5203 6.71558 22.0508 6.72449C22.5813 6.7334 23.1003 6.88027 23.5568 7.15066C24.0133 7.42105 24.3915 7.80563 24.6542 8.26656C24.9169 8.72749 25.055 9.24887 25.055 9.7794C25.055 10.3099 24.9169 10.8313 24.6542 11.2922C24.3915 11.7532 24.0133 12.1377 23.5568 12.4081C23.1003 12.6785 22.5813 12.8254 22.0508 12.8343C21.5203 12.8432 20.9966 12.7138 20.5313 12.4589C20.1922 13.429 19.6725 14.3261 18.9995 15.1028V15.1028ZM19.6778 40.0343C21.0339 40.3894 22.4533 40.4288 23.827 40.1495C25.2007 39.8701 26.492 39.2794 27.6016 38.4229C28.7112 37.5663 29.6096 36.4667 30.2276 35.2086C30.8457 33.9505 31.1669 32.5674 31.1667 31.1657V21.4905C31.1667 20.5451 30.7911 19.6385 30.1226 18.97C29.454 18.3015 28.5473 17.9259 27.6019 17.9259H22.7537C23.4524 18.7712 23.9067 19.8264 24.0126 20.9813H27.5978C27.7329 20.9813 27.8624 21.0349 27.9579 21.1304C28.0534 21.2259 28.1071 21.3554 28.1071 21.4905V31.1657C28.1071 32.7466 27.4945 34.2659 26.3979 35.4046C25.3013 36.5433 23.806 37.2128 22.2261 37.2723C21.5356 38.3315 20.6739 39.2644 19.6758 40.0343H19.6778ZM28.1661 15.1028C29.096 15.626 30.1467 15.8967 31.2137 15.8878C32.2806 15.879 33.3267 15.5909 34.2478 15.0524C35.1688 14.5138 35.9329 13.7435 36.4638 12.8181C36.9947 11.8926 37.2741 10.8443 37.2741 9.77736C37.2741 8.71044 36.9947 7.66211 36.4638 6.73666C35.9329 5.81121 35.1688 5.04089 34.2478 4.50233C33.3267 3.96377 32.2806 3.67574 31.2137 3.6669C30.1467 3.65805 29.096 3.9287 28.1661 4.45191C28.8322 5.22185 29.3558 6.11808 29.698 7.09987C30.1633 6.84495 30.687 6.71558 31.2174 6.72449C31.7479 6.7334 32.267 6.88027 32.7234 7.15066C33.1799 7.42105 33.5581 7.80563 33.8208 8.26656C34.0836 8.72749 34.2217 9.24887 34.2217 9.7794C34.2217 10.3099 34.0836 10.8313 33.8208 11.2922C33.5581 11.7532 33.1799 12.1377 32.7234 12.4081C32.267 12.6785 31.7479 12.8254 31.2174 12.8343C30.687 12.8432 30.1633 12.7138 29.698 12.4589C29.3589 13.429 28.8391 14.3261 28.1661 15.1028V15.1028ZM28.8445 40.0343C30.2005 40.3894 31.62 40.4288 32.9937 40.1495C34.3673 39.8701 35.6586 39.2794 36.7683 38.4229C37.8779 37.5663 38.7763 36.4667 39.3943 35.2086C40.0123 33.9505 40.3336 32.5674 40.3334 31.1657V21.4905C40.3334 20.5451 39.9578 19.6385 39.2892 18.97C38.6207 18.3015 37.714 17.9259 36.7685 17.9259H31.9204C32.6191 18.7712 33.0754 19.8264 33.1793 20.9813H36.7645C36.8995 20.9813 37.0291 21.0349 37.1246 21.1304C37.2201 21.2259 37.2737 21.3554 37.2737 21.4905V31.1657C37.2738 32.7466 36.6612 34.2659 35.5645 35.4046C34.4679 36.5433 32.9726 37.2128 31.3928 37.2723C30.7022 38.3315 29.8406 39.2644 28.8424 40.0343H28.8445Z" fill="#00E833"/>
</svg>
