<svg width="44" height="44" viewBox="0 0 44 44" fill="none" xmlns="http://www.w3.org/2000/svg">
<path d="M33 14.6667C33 11.7493 31.8411 8.95141 29.7782 6.88851C27.7153 4.82561 24.9174 3.66669 22 3.66669C19.0826 3.66669 16.2847 4.82561 14.2218 6.88851C12.1589 8.95141 11 11.7493 11 14.6667C11 27.5 5.5 31.1667 5.5 31.1667H38.5C38.5 31.1667 33 27.5 33 14.6667Z" stroke="#F07300" stroke-width="4" stroke-linecap="round" stroke-linejoin="round"/>
<path d="M25.1717 38.4999C24.8494 39.0556 24.3867 39.5168 23.8301 39.8374C23.2735 40.158 22.6424 40.3268 22 40.3268C21.3577 40.3268 20.7266 40.158 20.17 39.8374C19.6133 39.5168 19.1507 39.0556 18.8284 38.4999" stroke="#F07300" stroke-width="4" stroke-linecap="round" stroke-linejoin="round"/>
</svg>
