<svg width="24" height="22" viewBox="0 0 24 22" fill="none" xmlns="http://www.w3.org/2000/svg">
<path d="M15.6667 2.75H1.91675V14.6667H15.6667V2.75Z" stroke="#1E1E1E" stroke-width="2" stroke-linecap="round" stroke-linejoin="round"/>
<path d="M15.6667 7.33334H19.3334L22.0834 10.0833V14.6667H15.6667V7.33334Z" stroke="#1E1E1E" stroke-width="2" stroke-linecap="round" stroke-linejoin="round"/>
<path d="M6.04167 19.25C7.30732 19.25 8.33333 18.224 8.33333 16.9583C8.33333 15.6927 7.30732 14.6667 6.04167 14.6667C4.77601 14.6667 3.75 15.6927 3.75 16.9583C3.75 18.224 4.77601 19.25 6.04167 19.25Z" stroke="#1E1E1E" stroke-width="2" stroke-linecap="round" stroke-linejoin="round"/>
<path d="M17.9584 19.25C19.2241 19.25 20.2501 18.224 20.2501 16.9583C20.2501 15.6927 19.2241 14.6667 17.9584 14.6667C16.6928 14.6667 15.6667 15.6927 15.6667 16.9583C15.6667 18.224 16.6928 19.25 17.9584 19.25Z" stroke="#1E1E1E" stroke-width="2" stroke-linecap="round" stroke-linejoin="round"/>
</svg>
