<svg width="24" height="22" viewBox="0 0 24 22" fill="none" xmlns="http://www.w3.org/2000/svg">
<path d="M15.6667 19.25V17.4167C15.6667 16.4442 15.2804 15.5116 14.5927 14.8239C13.9051 14.1363 12.9725 13.75 12 13.75H5.58335C4.61089 13.75 3.67826 14.1363 2.99063 14.8239C2.303 15.5116 1.91669 16.4442 1.91669 17.4167V19.25" stroke="#1E1E1E" stroke-width="2" stroke-linecap="round" stroke-linejoin="round"/>
<path d="M8.79167 10.0833C10.8167 10.0833 12.4583 8.44171 12.4583 6.41667C12.4583 4.39162 10.8167 2.75 8.79167 2.75C6.76662 2.75 5.125 4.39162 5.125 6.41667C5.125 8.44171 6.76662 10.0833 8.79167 10.0833Z" stroke="#1E1E1E" stroke-width="2" stroke-linecap="round" stroke-linejoin="round"/>
<path d="M19.3333 7.3335V12.8335" stroke="#1E1E1E" stroke-width="2" stroke-linecap="round" stroke-linejoin="round"/>
<path d="M22.0833 10.0835H16.5833" stroke="#1E1E1E" stroke-width="2" stroke-linecap="round" stroke-linejoin="round"/>
</svg>
