<svg width="22" height="21" viewBox="0 0 22 21" fill="none" xmlns="http://www.w3.org/2000/svg">
<path d="M3.125 5.25H4.875H18.875" stroke="#EC0000" stroke-width="2" stroke-linecap="round" stroke-linejoin="round"/>
<path d="M7.5 5.25V3.5C7.5 3.03587 7.68437 2.59075 8.01256 2.26256C8.34075 1.93437 8.78587 1.75 9.25 1.75H12.75C13.2141 1.75 13.6592 1.93437 13.9874 2.26256C14.3156 2.59075 14.5 3.03587 14.5 3.5V5.25M17.125 5.25V17.5C17.125 17.9641 16.9406 18.4092 16.6124 18.7374C16.2842 19.0656 15.8391 19.25 15.375 19.25H6.625C6.16087 19.25 5.71575 19.0656 5.38756 18.7374C5.05937 18.4092 4.875 17.9641 4.875 17.5V5.25H17.125Z" stroke="#EC0000" stroke-width="2" stroke-linecap="round" stroke-linejoin="round"/>
<path d="M9.25 9.625V14.875" stroke="#EC0000" stroke-width="2" stroke-linecap="round" stroke-linejoin="round"/>
<path d="M12.75 9.625V14.875" stroke="#EC0000" stroke-width="2" stroke-linecap="round" stroke-linejoin="round"/>
</svg>
