<svg width="22" height="22" viewBox="0 0 22 22" fill="none" xmlns="http://www.w3.org/2000/svg">
<path d="M12.8332 1.83398H5.49984C5.01361 1.83398 4.54729 2.02714 4.20347 2.37096C3.85966 2.71477 3.6665 3.18109 3.6665 3.66732V18.334C3.6665 18.8202 3.85966 19.2865 4.20347 19.6303C4.54729 19.9742 5.01361 20.1673 5.49984 20.1673H16.4998C16.9861 20.1673 17.4524 19.9742 17.7962 19.6303C18.14 19.2865 18.3332 18.8202 18.3332 18.334V7.33398L12.8332 1.83398Z" stroke="#1E1E1E" stroke-width="2" stroke-linecap="round" stroke-linejoin="round"/>
<path d="M12.8333 1.83398V7.33398H18.3333" stroke="#1E1E1E" stroke-width="2" stroke-linecap="round" stroke-linejoin="round"/>
<path d="M14.6666 11.917H7.33325" stroke="#1E1E1E" stroke-width="2" stroke-linecap="round" stroke-linejoin="round"/>
<path d="M14.6666 15.584H7.33325" stroke="#1E1E1E" stroke-width="2" stroke-linecap="round" stroke-linejoin="round"/>
<path d="M9.16659 8.25098H8.24992H7.33325" stroke="#1E1E1E" stroke-width="2" stroke-linecap="round" stroke-linejoin="round"/>
</svg>
