<svg width="22" height="22" viewBox="0 0 22 22" fill="none" xmlns="http://www.w3.org/2000/svg">
<path d="M17.4167 10.0835H4.58339C3.57087 10.0835 2.75006 10.9043 2.75006 11.9168V18.3335C2.75006 19.346 3.57087 20.1668 4.58339 20.1668H17.4167C18.4292 20.1668 19.2501 19.346 19.2501 18.3335V11.9168C19.2501 10.9043 18.4292 10.0835 17.4167 10.0835Z" stroke="#1E1E1E" stroke-width="2" stroke-linecap="round" stroke-linejoin="round"/>
<path d="M6.41681 10.0835V6.41683C6.41681 5.20125 6.89969 4.03547 7.75924 3.17592C8.61878 2.31638 9.78457 1.8335 11.0001 1.8335C12.2157 1.8335 13.3815 2.31638 14.241 3.17592C15.1006 4.03547 15.5835 5.20125 15.5835 6.41683V10.0835" stroke="#1E1E1E" stroke-width="2" stroke-linecap="round" stroke-linejoin="round"/>
</svg>
