<svg width="22" height="22" viewBox="0 0 22 22" fill="none" xmlns="http://www.w3.org/2000/svg">
<path d="M11.3402 5.00297C11.3401 5.71796 11.0574 6.40391 10.5536 6.9113C9.39388 8.08054 8.26861 9.29969 7.06491 10.4262C6.93052 10.5486 6.75426 10.6147 6.5725 10.611C6.39075 10.6072 6.21738 10.5338 6.08816 10.406L2.62084 6.91249C2.11683 6.40477 1.83398 5.71838 1.83398 5.00297C1.83398 4.28756 2.11683 3.60117 2.62084 3.09345C2.87234 2.84009 3.17149 2.63901 3.50105 2.50179C3.83061 2.36457 4.18407 2.29393 4.54106 2.29393C4.89805 2.29393 5.25151 2.36457 5.58107 2.50179C5.91063 2.63901 6.20978 2.84009 6.46128 3.09345L6.58723 3.22059L6.71318 3.09345C7.09069 2.71186 7.57321 2.45124 8.09931 2.34476C8.62541 2.23828 9.1713 2.29077 9.66748 2.49553C10.1637 2.7003 10.5877 3.04808 10.8856 3.49461C11.1835 3.94113 11.3417 4.4662 11.3402 5.00297V5.00297Z" stroke="#1E1E1E" stroke-width="2" stroke-linejoin="round"/>
<path d="M19.4546 14.497L14.9107 19.0409C14.7771 19.1746 14.5959 19.2498 14.4069 19.25L6.28238 19.25C5.80966 19.25 5.35631 19.0622 5.02205 18.728C4.68779 18.3937 4.5 17.9403 4.5 17.4676C4.5 16.9949 4.68779 16.5416 5.02205 16.2073C5.35631 15.873 5.80966 15.6852 6.28238 15.6852L13.5133 15.6852" stroke="#1E1E1E" stroke-width="2" stroke-linecap="round" stroke-linejoin="round"/>
<path d="M14.7022 14.4973L13.6827 15.5168C13.6291 15.5703 13.5656 15.6128 13.4957 15.6417C13.4257 15.6707 13.3508 15.6856 13.2751 15.6855C13.0576 15.6855 12.8592 15.562 12.7606 15.3671L12.498 14.8407C12.275 14.3947 12.1979 13.8899 12.2777 13.3978C12.3574 12.9056 12.59 12.4509 12.9424 12.0982L14.0059 10.1963C14.4514 9.7506 15.0558 9.50013 15.686 9.5L19.4552 9.5" stroke="#1E1E1E" stroke-width="2" stroke-linecap="round" stroke-linejoin="round"/>
</svg>
